<?xml version="1.0" encoding="iso-8859-1"?>
<!-- Generator: Adobe Illustrator 16.0.0, SVG Export Plug-In . SVG Version: 6.00 Build 0)  -->
<!DOCTYPE svg PUBLIC "-//W3C//DTD SVG 1.1//EN" "http://www.w3.org/Graphics/SVG/1.1/DTD/svg11.dtd">
<svg version="1.1" xmlns="http://www.w3.org/2000/svg" xmlns:xlink="http://www.w3.org/1999/xlink" x="0px" y="0px" width="9px"
	 height="19px" viewBox="0 0 9 19" style="enable-background:new 0 0 9 19;" xml:space="preserve">
<g id="facebook">
	<path id="Facebook_1_" style="fill:#FFFFFF;" d="M1.917,3.682c0,0.477,0,2.613,0,2.613H0v3.199h1.917V19h3.937V9.494h2.641
		c0,0,0.248-1.535,0.367-3.21c-0.343,0-2.993,0-2.993,0s0-1.861,0-2.188c0-0.327,0.429-0.767,0.854-0.767c0.423,0,1.316,0,2.145,0
		c0-0.436,0-1.941,0-3.33C7.761,0,6.505,0,5.95,0C1.818,0,1.917,3.203,1.917,3.682z"/>
</g>
<g id="Layer_1">
</g>
</svg>
