<?xml version="1.0" encoding="iso-8859-1"?>
<!-- Generator: Adobe Illustrator 16.0.0, SVG Export Plug-In . SVG Version: 6.00 Build 0)  -->
<!DOCTYPE svg PUBLIC "-//W3C//DTD SVG 1.1//EN" "http://www.w3.org/Graphics/SVG/1.1/DTD/svg11.dtd">
<svg version="1.1" xmlns="http://www.w3.org/2000/svg" xmlns:xlink="http://www.w3.org/1999/xlink" x="0px" y="0px" width="19px"
	 height="17px" viewBox="0 0 19 17" style="enable-background:new 0 0 19 17;" xml:space="preserve">
<g id="twitter">
	<path style="fill:#FFFFFF;" d="M18.635,2.623c-0.689,0.334-1.422,0.549-2.199,0.649c0.792-0.511,1.399-1.312,1.688-2.274
		c-0.741,0.469-1.561,0.805-2.434,1.001c-0.695-0.804-1.692-1.305-2.789-1.305c-2.111,0-3.822,1.841-3.822,4.117
		c0,0.319,0.033,0.636,0.096,0.933C6.003,5.581,3.182,3.936,1.295,1.451C0.967,2.057,0.779,2.762,0.779,3.52
		c0,1.425,0.674,2.691,1.702,3.419c-0.628-0.025-1.218-0.2-1.732-0.512c0,0.017,0,0.038,0,0.058c0,1.99,1.317,3.65,3.066,4.034
		c-0.32,0.095-0.659,0.136-1.01,0.136c-0.246,0-0.479-0.016-0.716-0.072c0.484,1.641,1.898,2.833,3.57,2.857
		c-1.308,1.109-2.956,1.762-4.747,1.762c-0.31,0-0.615-0.018-0.913-0.058C1.691,16.316,3.697,17,5.86,17
		c7.032,0,10.879-6.273,10.879-11.712c0-0.174-0.004-0.351-0.013-0.526C17.474,4.173,18.123,3.447,18.635,2.623z"/>
</g>
<g id="Layer_1">
</g>
</svg>
