<?xml version="1.0" encoding="iso-8859-1"?><!DOCTYPE svg PUBLIC "-//W3C//DTD SVG 1.1//EN" "http://www.w3.org/Graphics/SVG/1.1/DTD/svg11.dtd"><svg width="28" height="19" viewBox="0 0 28 19" xmlns="http://www.w3.org/2000/svg" xmlns:xlink="http://www.w3.org/1999/xlink"><svg width="9" height="19" viewBox="0 0 9 19" id="facebook"><g><path d="M1.917 3.682v2.613H0v3.2h1.917V19h3.937V9.494h2.64s.25-1.535.368-3.21H5.87V4.096c0-.327.428-.767.853-.767h2.145V0H5.95C1.818 0 1.917 3.203 1.917 3.682z" fill="#fff"/></g></svg><svg width="19" height="17" viewBox="0 0 19 17" id="twitter" x="9"><path d="M18.635 2.623c-.69.334-1.422.55-2.2.65.793-.512 1.4-1.313 1.69-2.275-.742.47-1.562.805-2.435 1-.695-.803-1.692-1.304-2.79-1.304-2.11 0-3.82 1.84-3.82 4.117 0 .32.032.637.095.934-3.172-.163-5.993-1.808-7.88-4.293C.967 2.058.78 2.763.78 3.52c0 1.425.673 2.69 1.7 3.42-.627-.026-1.217-.2-1.73-.513v.058c0 1.99 1.316 3.65 3.065 4.034-.32.094-.66.135-1.01.135-.246 0-.48-.016-.716-.072.483 1.64 1.897 2.833 3.57 2.857-1.31 1.11-2.957 1.762-4.748 1.762-.31 0-.615-.018-.913-.058C1.69 16.316 3.696 17 5.86 17c7.032 0 10.88-6.273 10.88-11.712 0-.174-.005-.35-.014-.526.748-.59 1.397-1.315 1.91-2.14z" fill="#fff"/></svg></svg>